<?xml version="1.0" encoding="UTF-8"?>
<svg width="37px" height="125px" viewBox="0 0 37 125" version="1.1" xmlns="http://www.w3.org/2000/svg" xmlns:xlink="http://www.w3.org/1999/xlink">
    <!-- Generator: Sketch 54.1 (76490) - https://sketchapp.com -->
    <title>Group 2</title>
    <desc>Created with Sketch.</desc>
    <g id="Page-1" stroke="none" stroke-width="1" fill="none" fill-rule="evenodd">
        <g id="Tablet" transform="translate(-355.000000, -71.000000)" fill-rule="nonzero">
            <g id="Group-2" transform="translate(355.140719, 71.000000)">
                <path d="M27.8592814,31 L27.7041477,35.5153755 L26.5244603,69.915291 L25.1505763,110.017966 C22.6885226,113.775625 19.8816032,117.292493 16.7766923,120.524388 C15.2811566,122.084004 13.7141923,123.579557 12.0813797,125 L10.1941032,69.915291 L8.85928144,31 L27.8592814,31 Z" id="Path" fill="#49AAB7"></path>
                <path d="M16.8592814,120.524388 C15.3481453,122.084004 13.7648355,123.579557 12.1149905,125 L10.2080271,69.915291 L8.85928144,31 L16.0992027,31 L16.4307503,69.915291 L16.8592814,120.524388 Z" id="Path" fill="#488089"></path>
                <polygon id="Path" fill="#E6E6E6" points="27.8592814 31 26.5254979 70 10.1941813 70 8.85928144 31"></polygon>
                <polygon id="Path" fill="#CCCCCC" points="15.8592814 70 10.1062281 70 8.85928144 31 15.5527579 31"></polygon>
                <polygon id="Path" fill="#E5D6B9" points="36.8592814 0 32.3001559 15.1737876 27.8446468 30 8.87725837 30 2.2647436 7.99641821 2.26140106 7.9920324 -0.140718563 0"></polygon>
                <polygon id="Path" fill="#D1A982" points="15.8592814 29.9956142 15.8537684 30 8.78382142 30 2.23982016 7.99641821 2.23651225 7.9920324 -0.140718563 0 9.87209936 0"></polygon>
                <path d="M36.8592814,0 L32.3001559,15.8787306 C30.6846298,13.261534 29.1738346,10.3127415 26.100993,9.19059393 C18.7486788,6.51602801 19.7402773,13.5610027 13.5834525,16.2929383 C13.437498,16.3583395 13.293772,16.4157091 13.15116,16.4730785 C7.24724835,18.7495003 3.65298188,13.2041644 2.2647436,8.36791536 L2.26140106,8.3633258 L-0.140718563,0 L36.8592814,0 Z" id="Path" fill="#EA7E5A"></path>
                <path d="M12.8592814,16.4726672 C7.08501475,18.7503383 3.56967537,13.203607 2.21192166,8.36714188 L2.20865252,8.36369948 L-0.140718563,0 L9.75475507,0 L12.8592814,16.4726672 Z" id="Path" fill="#D64F39"></path>
            </g>
        </g>
    </g>
</svg>