<?xml version="1.0" encoding="UTF-8"?>
<svg width="41px" height="174px" viewBox="0 0 41 174" version="1.1" xmlns="http://www.w3.org/2000/svg" xmlns:xlink="http://www.w3.org/1999/xlink">
    <!-- Generator: Sketch 54.1 (76490) - https://sketchapp.com -->
    <title>pen</title>
    <desc>Created with Sketch.</desc>
    <g id="Page-1" stroke="none" stroke-width="1" fill="none" fill-rule="evenodd">
        <g id="Tablet" transform="translate(-419.000000, -68.000000)" fill-rule="nonzero">
            <g id="pen" transform="translate(444.741901, 154.741901) rotate(-225.000000) translate(-444.741901, -154.741901) translate(382.241901, 91.741901)">
                <path d="M26.7402485,118.7915 C28.9342726,110.757851 32.7042782,103.383177 34.1608589,101.926711 L28.8050356,96.5751349 L23.4530375,91.2197334 C21.9964568,92.6761993 14.6250275,96.445908 6.59047288,98.6394861 C6.59047288,98.6394861 6.03636566,113.617508 4.35737708,116.322256 C0.444746244,116.973581 -0.506088624,121.320029 0.57780848,123.500494 C0.57780848,123.500494 11.5924654,112.483153 13.1457689,110.933523 L13.1438563,110.931611 C12.2266285,109.426787 12.4176152,107.438934 13.7187289,106.138196 C15.2463489,104.610696 17.719066,104.612608 19.2425877,106.136283 C20.7682951,107.661871 20.7682951,110.136305 19.2425877,111.661893 C17.9398346,112.960718 15.9518247,113.15169 14.448522,112.236447 C12.8949452,113.786076 1.88056154,124.803417 1.88056154,124.803417 C4.05764551,125.887229 8.40416307,124.932644 9.05581283,121.020595 C11.7648725,119.341738 26.7402485,118.7915 26.7402485,118.7915 Z" id="Path" fill="#E5C400"></path>
                <path d="M123.283457,2.09926314 C120.24015,-0.944432946 114.962508,0.707094723 108.862915,4.48409664 L120.894955,16.5176772 C124.671739,10.4175688 126.324909,5.14136969 123.283457,2.09926314 Z" id="Path" fill="#59595A"></path>
                <path d="M105.120625,36.2159728 C109.453008,31.1941458 114.047679,25.8161627 117.693867,20.745905 L103.92754,6.979618 C98.8553628,10.6238912 93.477636,15.2188208 88.4574267,19.5528232 C83.409737,23.911041 73.6008614,33.7794738 63.2402007,44.4720447 C61.6836121,46.0808686 60.1120588,47.7079221 58.5426823,49.3371522 C43.7138694,64.7400155 29.0491228,80.3817674 26.6460829,82.7845281 C22.3028169,87.1277813 22.7035957,91.3050642 22.7035957,91.3050642 L28.0331637,96.6384257 L33.3646363,101.969883 C33.3646363,101.969883 37.5457406,102.37066 41.8873741,98.0293115 C44.2920464,95.6246462 59.9316676,80.9577661 75.3383854,66.1292689 C76.9657157,64.5615294 78.5914136,62.9918854 80.1999701,61.4317642 C90.8958374,51.070862 100.764299,41.2620151 105.120625,36.2159728 Z" id="Path" fill="#5F95DD"></path>
                <path d="M120.033666,17.2071069 C120.299795,16.7951527 120.560268,16.3851033 120.808888,15.9794074 L108.573693,3.61996795 C107.189445,4.48496274 105.762908,5.46342176 104.312398,6.5188841 L117.940999,20.2858788 C118.085915,20.0818064 118.225983,19.8796387 118.367937,19.6766547 C119.174404,21.411542 118.999319,23.4226073 117.35864,26.8395952 C115.627725,30.4443297 112.138958,33.2384887 108.445207,36.1969939 C106.441699,37.801547 104.369772,39.4610636 102.559934,41.2895521 C96.8521694,47.0550049 94.5240802,53.5246435 94.5240802,63.619968 L97.2176926,63.619968 C97.2176926,55.7653582 98.4500202,49.2889172 104.464857,43.2132744 C106.165065,41.4958012 108.175038,39.8858062 110.119018,38.3291421 C113.886843,35.3110477 117.783153,32.1903729 119.782352,28.0270243 C122.19556,23.0000414 121.92997,19.9773214 120.033666,17.2071069 Z" id="Path" fill="#5B5B5F" opacity="0.4"></path>
                <path d="M64.6144,44.1867248 C64.4753983,44.3299685 64.3369282,44.4729464 64.1976608,44.6164559 C62.6771476,46.1878844 61.1420167,47.7771188 59.6090119,49.3684793 C59.4705419,49.5122545 59.3323375,49.6560297 59.1938675,49.7998049 L75.5819751,66.1867248 C75.7262923,66.047999 75.8708753,65.9090074 76.0151925,65.7700158 C77.6048078,64.2387168 79.1928285,62.7055574 80.7641052,61.1816995 C80.9076251,61.042708 81.0506134,60.9039822 81.1938675,60.7649906 L64.6144,44.1867248 Z" id="Path" fill="#5B5B5F" opacity="0.4"></path>
                <path d="M120.561873,16.2095026 C124.427005,9.97162002 126.119237,4.57598436 123.006148,1.46544118 C123.005877,1.46517028 123.005606,1.46489937 123.005335,1.46489937 L111.116063,13.3454839 L18.8509247,105.543208 C20.3634146,107.055948 20.3631435,109.508731 18.8498403,111.020928 C17.5572158,112.308816 15.5846622,112.49845 14.0930473,111.590644 C12.5515492,113.127223 1.62279964,124.052051 1.62279964,124.052051 C3.78295733,125.126735 8.09568178,124.18046 8.74226512,120.301086 C11.4297203,118.636097 26.2886664,118.090493 26.2886664,118.090493 C28.4648193,110.12748 32.2033452,102.817893 33.6496857,101.36963 C33.6523967,101.369901 37.8170983,101.76732 42.1414803,97.4460976 C44.5374986,95.0521009 60.1208349,80.4483688 75.4721061,65.6839895 C77.0935799,64.1230289 78.713427,62.5601719 80.3161946,61.0067967 C80.4625909,60.8651128 80.6084449,60.7236999 80.75457,60.582016 L80.75457,60.582016 C91.2425043,50.4235812 100.86643,40.8551798 105.147435,35.9003083 C109.395094,30.9801127 113.894067,25.717221 117.498397,20.7404061 L117.49921,20.7412188 C117.523609,20.7070847 117.554244,20.6645524 117.586777,20.6190402 C117.616056,20.5786752 117.64642,20.5377684 117.675428,20.4971325 L117.674614,20.495778 C117.825619,20.2842003 118.006446,20.0300905 118.105128,19.8905739 C118.916814,21.6178708 118.740596,23.6201374 117.089301,27.0221754 C115.347186,30.6111387 111.835845,33.3930728 108.118194,36.3386342 C106.101721,37.9361672 104.016389,39.5884231 102.19484,41.4089117 C96.4501435,47.1491399 94.1069905,53.5904729 94.1069905,63.6416288 L96.8180318,63.6416288 C96.8180318,55.8213841 98.0583331,49.3732785 104.112088,43.3242175 C105.823298,41.6142585 107.846277,40.0113075 109.802835,38.461454 C113.59504,35.4565642 117.516561,32.3495428 119.528696,28.2044094 C121.95806,23.1994203 121.690751,20.189925 119.781907,17.4318306 C120.049758,17.021408 120.311644,16.6134235 120.561873,16.2095026 Z" id="Path" fill="#5B5B5F" opacity="0.3"></path>
            </g>
        </g>
    </g>
</svg>