<?xml version="1.0" encoding="UTF-8"?>
<svg width="92px" height="92px" viewBox="0 0 92 92" version="1.1" xmlns="http://www.w3.org/2000/svg" xmlns:xlink="http://www.w3.org/1999/xlink">
    <!-- Generator: Sketch 54.1 (76490) - https://sketchapp.com -->
    <title>girl (1)</title>
    <desc>Created with Sketch.</desc>
    <g id="Page-1" stroke="none" stroke-width="1" fill="none" fill-rule="evenodd">
        <g id="Tablet" transform="translate(-659.000000, -12.000000)" fill-rule="nonzero">
            <g id="girl-(1)" transform="translate(659.000000, 12.000000)">
                <path d="M46,92 C71.3355781,92 92,71.3359961 92,46.0002695 C92,20.6640039 71.3361172,0 46,0 C20.6638828,0 0,20.6640039 0,46.0000898 C0,71.3358164 20.6638828,92 46,92 Z" id="Path" fill="#5DDDD3"></path>
                <path d="M30.6561025,54.9617986 C26.8315775,45.2568348 18.7978892,36.4737507 28.9070469,18.7819863 C33.0705265,11.4956052 39.4302237,6.69015428 46.0000654,8.31713854 C52.5699072,6.69033448 58.9296044,11.4957854 63.093084,18.7819863 C73.2018834,36.4737507 65.1687326,45.2568348 61.3436701,54.9617986 L46.0006029,55 L30.65664,54.9617986 L30.6561025,54.9617986 Z" id="Path" fill="#666666"></path>
                <path d="M20.0197778,69.3858576 C19.5369163,70.1629531 18.3322867,76.7714101 17,81.7816354 C24.925925,88.1709669 35.0139085,92 45.9998197,92 C56.9862718,92 67.074075,88.1709669 75,81.7816354 C73.6671724,76.7719493 72.4627231,70.1624138 71.9798616,69.3858576 C64.5645654,57.4488232 53.1345586,62.6598386 52.3552727,49 C52.3552727,49 48.6780965,51.7357427 45.8703594,51.7607291 C43.0624421,51.7857155 39.6407605,49.172568 39.6407605,49.172568 C38.8632777,62.8205426 27.4298451,57.4578111 20.0197778,69.3858576 Z" id="Path" fill="#FED198"></path>
                <path d="M52,50.8236238 C51.9086911,50.2575544 51.8415048,49.6522289 51.8027298,49 C51.8027298,49 48.1585914,51.5863136 45.3760807,51.6099352 C42.5933913,51.6335568 39.2024521,49.1631422 39.2024521,49.1631422 C39.163141,49.8272669 39.0941679,50.4415992 39,51.015146 C39.071296,51.068677 39.142056,51.1230577 39.2146028,51.1760789 L39.2137094,51.1854256 C39.4279549,51.3628428 42.6852363,54.0266489 45.3755447,53.9997984 C48.065853,54.0264789 51.3227771,51.3623329 51.5373799,51.1854256 L51.5368438,51.1760789 C51.694803,51.0610297 51.8481162,50.9425817 51.9994639,50.8239637 L52,50.8236238 Z" id="Path" fill="#F0B97D"></path>
                <path d="M39.8078573,49.3844783 C40.0233585,49.5494407 43.2997315,52.024605 46.0058082,51.999815 C48.7118849,52.024605 51.9878984,49.5490761 52.2037591,49.3844783 C56.2939681,46.966185 59.6501431,39.8361662 58.8925638,32.1088196 C58.2721217,25.7790048 51.5202303,35.0602785 46.8176672,22 C40.1619335,36.1397337 33.8403255,27.7756871 33.1195918,33.1343203 C32.325167,39.038514 35.5936317,46.4674702 39.8078573,49.3848429 L39.8078573,49.3844783 L39.8078573,49.3844783 Z" id="Path" fill="#FED198"></path>
                <path d="M34.2867361,58.3388358 C30.2531164,60.5301934 22.8743154,60.5964595 20.0667461,65.1873089 C19.5777298,65.9867123 18.3502394,75.7803657 17,81.551374 C24.9189328,88.0833441 35.0093716,92 45.99973,92 C56.9909884,92 67.0805273,88.0838933 75,81.551374 C73.6497606,75.7803657 72.2746834,66.0626804 71.9332539,65.1873089 C70.0689804,60.4049834 61.4391111,60.2052698 57.4013517,58 C51.1235124,81.1649438 41.7665081,82.7441638 34.2870961,58.3408494 L34.2856562,58.3390188 L34.2867361,58.3390188 L34.2867361,58.3388358 Z" id="Path" fill="#FBB429"></path>
                <g id="Group" transform="translate(28.000000, 57.000000)" fill="#FFFFFF">
                    <path d="M9.17942927,0.0924090909 C8.91663902,6.89285455 10.1248244,16.5270636 18.0980537,18.9891182 C10.5915659,19.2894909 5.72056098,8.93880909 0.171643902,6.22785455 L9.17924878,0.0929272727 L9.17924878,0.0924090909 L9.17942927,0.0924090909 Z" id="Path"></path>
                    <path d="M27.4637463,0.0924090909 C27.7393512,6.89285455 26.4710634,16.5270636 18.0982341,18.9891182 C25.980678,19.2894909 31.0958829,8.93880909 36.9216683,6.22785455 L27.4633854,0.0929272727 L27.4637463,0.0924090909 Z" id="Path"></path>
                </g>
            </g>
        </g>
    </g>
</svg>