<?xml version="1.0" encoding="UTF-8"?>
<svg width="302px" height="274px" viewBox="0 0 302 274" version="1.1" xmlns="http://www.w3.org/2000/svg" xmlns:xlink="http://www.w3.org/1999/xlink">
    <!-- Generator: Sketch 54.1 (76490) - https://sketchapp.com -->
    <title>wink</title>
    <desc>Created with Sketch.</desc>
    <g id="Page-1" stroke="none" stroke-width="1" fill="none" fill-rule="evenodd">
        <g id="Tablet" transform="translate(-233.000000, -318.000000)" fill-rule="nonzero">
            <g id="wink" transform="translate(233.000000, 318.000000)">
                <path d="M301.843323,73.9912258 L302,74.8755082 C301.8871,107.817638 288.45433,139.576544 264.25,164.129489 L158.078125,271.202909 C156.248688,272.986107 153.686554,274 151,274 C148.313446,274 145.751312,272.986107 143.921875,271.202909 L37.75,164.129489 C13.5894467,139.570272 0.161285695,107.842724 0,74.9235899 C0.0599057109,74.6141956 0.0944670156,74.3006206 0.103683324,73.9849547 C1.45848069,32.4905816 36.8629304,0 80.6910857,0 C107.296265,0.190235811 132.055877,12.3674095 146.753586,32.4905816 C147.737427,33.7427918 149.329544,34.4849202 151.02304,34.4849202 C152.718841,34.4849202 154.308655,33.7427918 155.2948,32.4905816 C169.980988,12.3799523 194.719864,0.204868924 221.308914,0 C265.13707,0 300.541519,32.4905816 301.843323,73.9912258 Z" id="Path" fill="#FF6973"></path>
                <path d="M245.965228,98.9435442 C246.514411,87.3310358 239.398452,76.3981674 227.428338,70.457288 C215.45562,64.5142373 200.54438,64.5142373 188.574266,70.457288 C176.601548,76.3981674 169.485589,87.3310358 170.034772,98.9435442 C169.438739,110.582109 176.541684,121.556234 188.532621,127.52317 C200.526161,133.492277 215.473839,133.492277 227.467379,127.52317 C239.458316,121.556234 246.561261,110.582109 245.965228,98.9435442 L245.965228,98.9435442 Z" id="Path" fill="#FFFEED"></path>
                <path d="M131.99287,99.0915757 C132.399197,81.1825787 115.388147,66.3789115 93.9700083,66 C72.5779164,66.4006877 55.6033319,81.1912893 56.0070547,99.0785101 C56.0070547,101.796218 58.6403686,104 61.8935917,104 C65.1442103,104 67.7775235,101.796218 67.7775235,99.0785101 C67.5144528,86.7421201 79.2172006,76.5441836 93.9700083,76.2567337 C108.746258,76.5202293 120.482867,86.7246988 120.219796,99.0785101 C120.219796,101.796218 122.855714,104 126.106333,104 C129.356952,104 131.99287,101.796218 131.99287,99.0785101 L131.99287,99.0915757 Z" id="Path" fill="#FFFEED"></path>
                <path d="M198.548338,85 C203.785975,85.0265387 208.013238,89.2879375 207.999969,94.5236954 C207.986699,99.7613484 203.736688,104 198.500948,104 C193.263311,104 189.013301,99.7613484 189.000031,94.5236954 C188.986762,89.2879375 193.214025,85.0265387 198.451662,85 L198.548338,85 Z" id="Path" fill="#C1215E"></path>
                <g id="Group" transform="translate(38.000000, 113.000000)" fill="#FFE684">
                    <path d="M231.372549,0.130168123 C234.190143,0.794711538 235.959329,3.6195912 235.351524,6.47644231 L230.260876,33.3641824 C229.833831,35.8305286 227.730239,37.6368989 225.256089,37.6688703 C224.912645,37.6574516 224.573721,37.6209132 224.237055,37.559255 C221.417203,36.8992791 219.645756,34.0743989 220.253562,31.2129808 L225.34195,4.32524068 C225.570159,2.95048077 226.340648,1.72644231 227.477175,0.936297785 C228.613703,0.143870338 230.01911,-0.146153846 231.372549,0.130168123 Z" id="Path"></path>
                    <path d="M214.91211,6.47644231 L209.821462,33.3641824 C209.396676,35.8305286 207.295343,37.6368989 204.821193,37.6688703 C204.47775,37.6574516 204.134306,37.6209132 203.797641,37.559255 C200.977788,36.8992791 199.206342,34.0743989 199.814147,31.2129808 L204.902535,4.32524068 C205.128485,2.95048077 205.894455,1.72644231 207.028722,0.931730769 C208.16299,0.139302738 209.566138,-0.155288462 210.919577,0.116466492 C213.750727,0.771874708 215.531212,3.61045658 214.91211,6.47644231 Z" id="Path"></path>
                    <path d="M36.20167,31.2175484 C36.8094747,34.0789665 35.0357687,36.9038462 32.2159158,37.5661055 C31.8792508,37.6254808 31.5358071,37.6620192 31.1946235,37.6734374 C28.7182141,37.6414665 26.6168811,35.8350962 26.1920956,33.36875 L21.1014478,6.48329342 C20.4891238,3.6241588 22.2628292,0.796995046 25.0804228,0.134735723 C26.433862,-0.137019231 27.8370098,0.157571969 28.9712779,0.952283508 C30.1055453,1.74471154 30.8715152,2.96875 31.0974649,4.34579342 L36.20167,31.2175484 Z" id="Path"></path>
                    <path d="M10.6716071,4.32524068 L15.7599955,31.2129808 C16.3700596,34.0743989 14.5963542,36.8992791 11.7765012,37.559255 C11.4398362,37.6209132 11.1009113,37.6574516 10.759727,37.6688703 C8.28331773,37.6368989 6.17972594,35.8305286 5.75268047,33.3641824 L0.662032637,6.47644231 C0.0542279412,3.6195912 1.82341467,0.794711538 4.64100825,0.130168123 C5.99444685,-0.146153846 7.39985462,0.143870338 8.53638145,0.936297785 C9.67290886,1.72644231 10.443398,2.95048077 10.6716071,4.32524068 L10.6716071,4.32524068 Z" id="Path"></path>
                </g>
                <path d="M217,164.993185 C217,162.788099 214.772783,161 212.026176,161 C209.279569,161 207.052353,162.788099 207.052353,164.993185 C207.052353,171.50773 185.715529,180.679687 151,180.679687 C116.284471,180.679687 94.9476475,171.525399 94.9476475,164.993185 C94.9476475,162.788099 92.7204308,161 89.9738237,161 C87.2272167,161 85,162.788099 85,164.993185 C85,180.596643 119.020074,189 151,189 C182.979926,189 217,180.596643 217,164.993185 Z" id="Path" fill="#FFFEEE"></path>
            </g>
        </g>
    </g>
</svg>