<?xml version="1.0" encoding="UTF-8"?>
<svg width="25px" height="148px" viewBox="0 0 25 148" version="1.1" xmlns="http://www.w3.org/2000/svg" xmlns:xlink="http://www.w3.org/1999/xlink">
    <!-- Generator: Sketch 54.1 (76490) - https://sketchapp.com -->
    <title>Group 2</title>
    <desc>Created with Sketch.</desc>
    <g id="Page-1" stroke="none" stroke-width="1" fill="none" fill-rule="evenodd">
        <g id="Tablet" transform="translate(-227.000000, -18.000000)" fill-rule="nonzero">
            <g id="Group-2" transform="translate(226.637725, 18.000000)">
                <path d="M25.3622754,27.7565422 C25.3622754,28.1024954 25.3556172,28.4473182 25.3467394,28.7932717 C24.9028473,45.0689094 0.820593915,45.0689094 0.374482551,28.7932717 C0.364495051,28.4473182 0.362275449,28.1024954 0.362275449,27.7565422 C0.362275449,22.7040396 1.36547147,17.8934786 3.1865388,13.5125327 C5.35828056,8.27461747 8.69301948,3.65851372 12.8622754,0 C20.5149743,6.71669647 25.3622754,16.6566386 25.3622754,27.7565422 Z" id="Path" fill="#E5D6B9"></path>
                <path d="M12.3622754,41 C6.47465911,41 0.587042496,36.9321088 0.373993227,28.7940657 C0.365471256,28.4481027 0.362275449,28.1032704 0.362275449,27.7573076 C0.362275449,22.7046656 1.32632332,17.8939721 3.07439278,13.5129054 C5.15801435,8.27484565 8.360145,3.6586146 12.3622754,0 C11.226723,3.6586146 10.3191331,8.27484565 9.72579068,13.5129054 C9.2304512,17.8939721 8.95561778,22.7046656 8.95561778,27.7573076 C8.95561778,28.1032704 8.95561778,28.4481027 8.95881331,28.7940657 C9.01953256,36.9321088 10.6919692,41 12.3622754,41 Z" id="Path" fill="#D1A982"></path>
                <path d="M24.3622754,27.1738526 C14.9799012,31.4916073 13.425962,17.2621646 9.16571269,21.681748 C9.11872071,21.7293419 9.07493281,21.7758287 9.02794084,21.8178885 C4.81468345,26.0028233 0.732789774,21.5898808 3.02044453,13.2288658 C5.1105192,8.10090947 8.3198572,3.581711 12.3323307,0 C19.6972543,6.5756937 24.3622754,16.3069678 24.3622754,27.1738526 Z" id="Path" fill="#49AAB7"></path>
                <path d="M12.3622754,0 C11.2204274,3.67036643 10.3078057,8.30142527 9.71117371,13.5563101 C9.39732619,16.3317696 9.17131301,19.2807661 9.04813071,22.3579305 C4.82136403,26.6464519 0.727420499,22.1242791 3.02289971,13.5563101 C5.11807312,8.30142527 8.33795674,3.67036643 12.3622754,0 Z" id="Path" fill="#488089"></path>
                <path d="M22.3622754,37 L21.0264573,77.8511242 L18.7394403,148 C16.2562999,147.760013 13.808026,147.387578 11.4055143,146.888359 C9.89100586,146.577054 8.39284085,146.213676 6.91428832,145.798226 L4.69700414,77.8511242 L3.36227545,37 L22.3622754,37 Z" id="Path" fill="#5CBF96"></path>
                <path d="M11.3622754,147 C9.85590872,146.685546 8.36579755,146.318492 6.89519342,145.898839 L4.68982891,77.2643782 L3.36227545,36 L10.4877159,36 L10.8149983,77.2643782 L11.3622754,147 Z" id="Path" fill="#529E5F"></path>
                <polygon id="Path" fill="#E6E6E6" points="22.3622754 37 21.0285598 78 4.69708068 78 3.36227545 37"></polygon>
                <polygon id="Path" fill="#CCCCCC" points="10.3622754 78 4.60918539 78 3.36227545 37 10.0558919 37"></polygon>
            </g>
        </g>
    </g>
</svg>