<?xml version="1.0" encoding="UTF-8"?>
<svg width="92px" height="92px" viewBox="0 0 92 92" version="1.1" xmlns="http://www.w3.org/2000/svg" xmlns:xlink="http://www.w3.org/1999/xlink">
    <!-- Generator: Sketch 54.1 (76490) - https://sketchapp.com -->
    <title>color</title>
    <desc>Created with Sketch.</desc>
    <g id="Page-1" stroke="none" stroke-width="1" fill="none" fill-rule="evenodd">
        <g id="Tablet" transform="translate(-19.000000, -13.000000)" fill-rule="nonzero">
            <g id="color" transform="translate(19.000000, 13.000000)">
                <path d="M45.8499366,92 C54.2833608,92 62.1898282,89.7581178 69,85.8428955 L69,46 L45.8499366,46 L35,73.1328125 L45.8499366,92 Z" id="Path" fill="#8F318F"></path>
                <path d="M69.0942146,86 C76.1021775,81.9453174 81.9453174,76.1014727 86,69.0942146 L86,46 L46,46 L69.0942146,86 Z" id="Path" fill="#573193"></path>
                <path d="M46,45.8499366 L85.8428955,69 C89.7581178,62.1898282 92,54.2833608 92,45.8499366 L73.1328125,35 L46,45.8499366 Z" id="Path" fill="#0556B2"></path>
                <path d="M92,46 C92,37.621243 89.7581178,29.7660269 85.8428955,23 L51.390625,23 L46,46 L92,46 Z" id="Path" fill="#09A1E5"></path>
                <path d="M86,22.9057854 C81.9453174,15.8978225 76.1014727,10.0546826 69.0942146,6 L51.4118808,6 L46,46 L86,22.9057854 Z" id="Path" fill="#49B296"></path>
                <path d="M69,6.15710449 C62.1898282,2.24188223 54.2833608,1.42108547e-14 45.8499366,1.42108547e-14 L35,18.8671875 L45.8499366,46 L69,6.15710449 Z" id="Path" fill="#89C247"></path>
                <path d="M23,85.8428955 C29.7660269,89.7581178 37.621243,92 46,92 L46,46 L23,46 L23,85.8428955 Z" id="Path" fill="#C7318B"></path>
                <path d="M6,69.0942146 C10.0546826,76.1021775 15.8985273,81.9453174 22.9057854,86 L46,46 L6,46 L6,69.0942146 Z" id="Path" fill="#FF3187"></path>
                <path d="M0,45.8499366 C0,54.2833608 2.24188223,62.1898282 6.15710449,69 L46,45.8499366 L18.8671875,35 L0,45.8499366 Z" id="Path" fill="#FF5178"></path>
                <path d="M6.15710449,23 C2.24188223,29.7660269 0,37.621243 0,46 L46,46 L40.609375,23 L6.15710449,23 Z" id="Path" fill="#FF9259"></path>
                <path d="M22.9057854,6 C15.8978225,10.0546826 10.0546826,15.8985273 6,22.9057854 L46,46 L40.5881192,6 L22.9057854,6 Z" id="Path" fill="#FFB24A"></path>
                <path d="M46,1.42108547e-14 C37.621243,1.42108547e-14 29.7660269,2.24188223 23,6.15710449 L46,46 L46,1.42108547e-14 Z" id="Path" fill="#FFD23B"></path>
                <path d="M45.6666667,19 L32,46 L45.6666667,73 C60.7623654,73 73,60.9116049 73,46 C73,31.0883951 60.7623654,19 45.6666667,19 Z" id="Path" fill="#FFFFFF"></path>
                <path d="M19,46 C19,60.9116049 31.0883951,73 46,73 L46,19 C31.0883951,19 19,31.0883951 19,46 Z" id="Path" fill="#FFFFFF"></path>
                <path d="M36.6539664,44.1035953 C35.5718149,45.9583713 35,48.094814 35,50.2826609 C35,56.7433933 39.9347956,62 46,62 L46,28 L36.6539664,44.1035953 Z" id="Path" fill="#2F2F2F"></path>
                <path d="M47.9546876,44.1035953 C46.6757812,45.9583713 46,48.094814 46,50.2826609 C46,56.7433933 51.8320312,62 59,62 L59,28 L47.9546876,44.1035953 Z" id="Path" fill="#2F2F2F" transform="translate(52.500000, 45.000000) scale(-1, 1) translate(-52.500000, -45.000000) "></path>
            </g>
        </g>
    </g>
</svg>