<?xml version="1.0" encoding="UTF-8"?>
<svg width="36px" height="31px" viewBox="0 0 36 31" version="1.1" xmlns="http://www.w3.org/2000/svg" xmlns:xlink="http://www.w3.org/1999/xlink">
    <!-- Generator: Sketch 54.1 (76490) - https://sketchapp.com -->
    <title>heart</title>
    <desc>Created with Sketch.</desc>
    <g id="Page-1" stroke="none" stroke-width="1" fill="none" fill-rule="evenodd">
        <g id="Tablet" transform="translate(-306.000000, -505.000000)" fill-rule="nonzero">
            <g id="Group-2" transform="translate(38.000000, 250.000000)">
                <g id="heart" transform="translate(268.000000, 255.000000)">
                    <path d="M25.2781172,0 C22.5424688,0 19.9848516,1.04176528 18,2.94890742 C16.0151484,1.04176528 13.4574609,0 10.7218828,0 C4.80979687,0 0,4.98018265 0,11.1016646 C0,14.6506197 2.99130469,19.0733409 8.89094531,24.2469039 C13.2043359,28.0294795 17.5784063,30.8604391 17.6220703,30.888593 C17.7373125,30.962888 17.8686563,31 18,31 C18.1313437,31 18.2626875,30.9628169 18.378,30.8885219 C18.4216641,30.860368 22.7957344,28.0294084 27.109125,24.2468328 C33.0086953,19.0732699 36,14.6505486 36,11.1016646 C36,4.98018265 31.1902031,0 25.2781172,0 Z" id="Shape" fill="#C55757"></path>
                    <g id="Group" transform="translate(24.000000, 4.000000)" fill="#000000">
                        <path d="M0.69761157,0.0225321101 L0.669644628,0.0273027523 C0.265165289,0.0982018349 -0.00446280992,0.479192661 0.0673884298,0.878311927 C0.131429752,1.23398165 0.445090909,1.4839633 0.798842975,1.4839633 C0.842057851,1.4839633 0.885867769,1.48022018 0.929752066,1.47251376 L0.944553719,1.47001835 C1.3496281,1.4027156 1.62275207,1.02414679 1.55454545,0.624440367 C1.48633884,0.224587156 1.10231405,-0.0445504587 0.69761157,0.0225321101 Z" id="Path"></path>
                        <path d="M7.51656198,2.81702752 C6.60332231,1.57908257 5.30613223,0.657027523 3.86404959,0.220697248 C3.47124793,0.101724771 3.05531405,0.319706422 2.93489256,0.707229358 C2.81447107,1.09475229 3.0352314,1.50524771 3.42795868,1.62407339 C5.80507438,2.34333945 7.46523967,4.63897248 7.46523967,7.2066789 C7.46523967,7.6120367 7.79823967,7.94062385 8.20904132,7.94062385 C8.61984298,7.94062385 8.95284298,7.6120367 8.9527686,7.2066055 C8.9527686,5.60851376 8.45613223,4.0906422 7.51656198,2.81702752 Z" id="Path"></path>
                    </g>
                </g>
            </g>
        </g>
    </g>
</svg>