<?xml version="1.0" encoding="UTF-8"?>
<svg width="25px" height="145px" viewBox="0 0 25 145" version="1.1" xmlns="http://www.w3.org/2000/svg" xmlns:xlink="http://www.w3.org/1999/xlink">
    <!-- Generator: Sketch 54.1 (76490) - https://sketchapp.com -->
    <title>Group 2</title>
    <desc>Created with Sketch.</desc>
    <g id="Page-1" stroke="none" stroke-width="1" fill="none" fill-rule="evenodd">
        <g id="Tablet" transform="translate(-291.000000, -59.000000)" fill-rule="nonzero">
            <g id="Group-2" transform="translate(291.332335, 59.000000)">
                <path d="M24.6676647,23.5786599 L24.6676647,138.000467 C19.2116422,140.658138 13.3717063,142.650561 7.25468516,143.881272 C4.76870622,144.382427 2.23599013,144.759401 -0.332335329,145 L-0.332335329,23.5786599 L6.78397379,10.1550338 L10.9547207,2.28624095 L12.1665518,0 L13.8001314,3.08121404 L17.5513556,10.1550338 L24.6676647,23.5786599 Z" id="Path" fill="#F7D65E"></path>
                <path d="M24.6676647,23.8781847 C20.9329019,25.8722415 16.6765178,27 12.163216,27 C10.5182742,27 8.90224944,26.8507544 7.33738622,26.5623625 C4.61249951,26.0607623 2.03331088,25.1450896 -0.332335329,23.8781847 L12.163216,0 L12.1654403,0.00336645799 L24.6676647,23.8781847 Z" id="Path" fill="#E5D6B9"></path>
                <path d="M12.6676647,0 L12.2274937,2.48803316 L7.95185284,26.6776139 L7.95185284,143.881272 C5.56510057,144.382427 3.13347664,144.759401 0.667664671,145 L0.667664671,23.5786599 L7.4999297,10.1550338 L11.5042032,2.28624095 L12.6676647,0 Z" id="Path" fill="#D1A22A"></path>
                <path d="M12.6676647,0.00342192326 L8.03190784,27 C5.41555101,26.4901355 2.93908924,25.5593764 0.667664671,24.2715982 L12.665529,0 L12.6676647,0.00342192326 Z" id="Path" fill="#D1A982"></path>
                <path d="M17.6676647,9.72668464 C16.0259076,10.5391001 14.1522125,11 12.1659592,11 C11.4394475,11 10.7277164,10.9394669 10.0409981,10.820525 C8.84265166,10.6166246 7.70797481,10.2438695 6.66766467,9.72668464 L12.1659592,0 L17.6676647,9.72668464 Z" id="Path" fill="#ED5972"></path>
                <path d="M12.6676647,0 L10.7352826,11 C9.64553888,10.7927176 8.61369451,10.4137798 7.66766467,9.88801662 L12.6676647,0 Z" id="Path" fill="#D8375A"></path>
            </g>
        </g>
    </g>
</svg>